<?xml version="1.0" encoding="utf-8"?>
<!-- Generator: Adobe Illustrator 22.0.0, SVG Export Plug-In . SVG Version: 6.00 Build 0)  -->
<svg version="1.1" xmlns="http://www.w3.org/2000/svg" xmlns:xlink="http://www.w3.org/1999/xlink" x="0px" y="0px"
	 viewBox="0 0 512 512" style="enable-background:new 0 0 512 512;" xml:space="preserve">
<style type="text/css">
	.st0{fill:#E1902B;}
	.st1{fill:#3D2A3D;}
	.st2{fill:#E7AD84;}
	.st3{fill:#2961A5;}
	.st4{fill:#FFD66C;}
	.st5{fill:#A18FA1;}
	.st6{fill:#DB4646;}
	.st7{fill:#78BEDE;}
	.st8{fill:#43B06D;}
	.st9{fill:#9EC853;}
	.st10{fill:#217D44;}
	.st11{fill:#DBDBDB;}
	.st12{fill:#FFFFFF;}
	.st13{fill:#C41E1E;}
	.st14{fill:#B9BDC2;}
	.st15{fill:#856685;}
	.st16{fill:#E8E8E8;}
	.st17{fill:#BDBDBD;}
	.st18{fill:#839797;}
	.st19{fill:#D9D9D9;}
	.st20{fill:#F0F0F0;}
	.st21{fill:#BFBFBF;}
	.st22{fill:#706470;}
	.st23{fill:#4B1E4C;}
	.st24{fill:#614F61;}
	.st25{fill:#A37352;}
	.st26{fill:#7A6C7A;}
	.st27{fill:#919191;}
	.st28{fill:#6E6E6E;}
	.st29{fill:#B8B8B8;}
	.st30{fill:#FF826E;}
	.st31{fill:#7D5737;}
	.st32{fill:#2E1B17;}
	.st33{fill:#483324;}
	.st34{fill:#9E9E9E;}
	.st35{fill:#7D6F7D;}
	.st36{fill:#6B4A6B;}
	.st37{fill:#4A80C2;}
	.st38{fill:#B34B0F;}
	.st39{fill:#FFC682;}
	.st40{clip-path:url(#SVGID_2_);fill:#DBDBDB;}
	.st41{fill:#FFDBC5;}
	.st42{fill:#E3E3E3;}
	.st43{clip-path:url(#SVGID_4_);}
	.st44{clip-path:url(#SVGID_6_);fill:#DBDBDB;}
	.st45{clip-path:url(#SVGID_8_);}
	.st46{fill:#E8B494;}
	.st47{fill:#F2D7C4;}
	.st48{fill:#5D5660;}
	.st49{fill:#3B2D3F;}
	.st50{fill:#756275;}
	.st51{fill:#E1622B;}
	.st52{fill:#F0E9E9;}
	.st53{fill:#4D917B;}
	.st54{fill:#C4C4C4;}
	.st55{fill:#14855A;}
	.st56{fill:#C21B1B;}
</style>
<g id="Layer_9">
	<path class="st9" d="M0,256C0,114.6,114.6,0,256,0c141.4,0,256,114.6,256,256c0,141.4-114.6,256-256,256C114.6,512,0,397.4,0,256z"
		/>
</g>
<g id="Layer_7">
	<g>
		<path class="st12" d="M297,360.7c0,4.6-3.7,8.3-8.3,8.3h-9.5c-4.6,0-8.3-3.7-8.3-8.3V244.3c0-4.6,3.7-8.3,8.3-8.3h9.5
			c4.6,0,8.3,3.7,8.3,8.3V360.7z"/>
		<path class="st31" d="M199,360.7c0,4.6-3.7,8.3-8.3,8.3h-9.5c-4.6,0-8.3-3.7-8.3-8.3V244.3c0-4.6,3.7-8.3,8.3-8.3h9.5
			c4.6,0,8.3,3.7,8.3,8.3V360.7z"/>
		<g>
			<path class="st31" d="M309,251.5c0,25.1-20.4,45.5-45.5,45.5h-93c-25.1,0-45.5-20.4-45.5-45.5v-16c0-25.1,20.4-45.5,45.5-45.5h93
				c25.1,0,45.5,20.4,45.5,45.5V251.5z"/>
			<path class="st12" d="M291.1,199.6c0.7,3.5,0.9,7.1,0.9,10.9v16.4c0,27.3-20.5,49.1-46.1,49.1h-96c-7.6,0-14.7-1.5-21-4.9
				c7.4,15,22.9,25.9,40.8,25.9h93.8c25.1,0,45.6-21.1,45.6-46.3v-15.2C309,220.9,301.8,207.9,291.1,199.6z"/>
		</g>
		<path class="st31" d="M152,371.7c0,4.6-3.7,8.3-8.3,8.3h-9.4c-4.6,0-8.3-3.7-8.3-8.3V255.3c0-4.6,3.7-8.3,8.3-8.3h9.4
			c4.6,0,8.3,3.7,8.3,8.3V371.7z"/>
		<path class="st12" d="M233.2,286c-1.4,0-2.2-0.5-3.2-1.1v86.9c0,4.6,3.5,8.3,8,8.3h9.6c4.6,0,8.3-3.7,8.3-8.3V286H233.2z"/>
		<g>
			<path class="st31" d="M149.7,191.3c-22.4-1.6-39-19.7-39.6-42c-0.4-16-13.2-16.2-12.8-0.2c1,36.4,16.3,64.5,52.4,67
				C165.7,217.3,165.6,192.5,149.7,191.3L149.7,191.3z"/>
		</g>
		<path class="st32" d="M214.6,212.2c19.5,0,35.4-9.2,36.6-22.2h-71.7c-0.5,0-1,0-1.5,0.1C179.3,202.4,195.2,212.2,214.6,212.2z"/>
		<path class="st32" d="M207.6,234.2c0,6-7.3,10.9-16.3,10.9c-9,0-16.3-4.9-16.3-10.9c0-6,7.3-10.8,16.3-10.8
			C200.3,223.3,207.6,228.2,207.6,234.2z"/>
		<path class="st12" d="M210.3,371c0.5-1,0.8-3.4,0.8-5c0-7.6-6.1-14-13.7-14h-12.8c-7.6,0-13.7,6.4-13.7,14c0,1.7,0.3,4,0.8,5
			H210.3z"/>
		<path class="st12" d="M168.4,380c0.6-1.6,0.9-3,0.9-4.7c0-8-6.5-14.3-14.5-14.3h-13.6c-8,0-14.5,6.3-14.5,14.3
			c0,1.8,0.3,3.2,0.9,4.7H168.4z"/>
		<path class="st12" d="M311.5,369c0.5-2,0.8-3.4,0.8-5c0-7.6-6.1-14-13.7-14h-12.8c-7.6,0-13.7,6.4-13.7,14c0,1.7,0.3,3,0.8,5
			H311.5z"/>
		<path class="st12" d="M270.8,380c0.6-2.3,0.9-3,0.9-4.7c0-8-6.5-14.3-14.5-14.3h-13.6c-8,0-14.5,6.3-14.5,14.3
			c0,1.8,0.3,2.5,0.9,4.7H270.8z"/>
		<g>
			<g>
				<path class="st32" d="M292.1,127.7l-67.2,51c-9.5,12.2-9.5,28.5,0.1,36.4l1.3,1c9.6,7.8,25.1,4.3,34.6-8l33.6-78.5L292.1,127.7z
					"/>
				<path class="st32" d="M340,127.7l67.2,51c9.5,12.2,9.5,28.5-0.1,36.4l-1.3,1c-9.6,7.8-25.1,4.3-34.6-8l-33.6-78.5L340,127.7z"/>
			</g>
			<path class="st25" d="M304.2,120c-9.7,0-20.2,8.1-23.4,18.2l-17.4,55.3c-3.2,10.1,2.1,18.5,11.8,18.5h81.6
				c9.7,0,15-8.5,11.8-18.5l-17.4-55.2c-3.2-10.1-13.7-18.3-23.4-18.3H304.2z"/>
			<path class="st25" d="M371.1,207.4c0,22.9-24.6,41.5-55,41.5c-30.4,0-55-18.6-55-41.5c0-22.9,24.6-41.5,55-41.5
				C346.4,165.9,371.1,184.4,371.1,207.4z"/>
			<g>
				<path class="st32" d="M301.6,172c0,3.7-3,6.8-6.8,6.8c-3.7,0-6.8-3-6.8-6.8c0-3.7,3-6.8,6.8-6.8
					C298.6,165.2,301.6,168.3,301.6,172z"/>
				<path class="st32" d="M344,172c0,3.7-3,6.8-6.8,6.8c-3.7,0-6.8-3-6.8-6.8c0-3.7,3-6.8,6.8-6.8C341,165.2,344,168.3,344,172z"/>
			</g>
			<path class="st12" d="M348,219c0,9.4-7.6,17-17,17h-30c-9.4,0-17-7.6-17-17l0,0c0-9.4,7.6-17,17-17h30
				C340.4,202,348,209.6,348,219L348,219z"/>
			<path class="st12" d="M338.5,204.2c0,10-10.1,18.1-22.5,18.1s-22.5-8.1-22.5-18.1c0-10,10.1-18.1,22.5-18.1
				S338.5,194.2,338.5,204.2z"/>
			<g>
				<path class="st32" d="M335.6,190.4c0,5.5-19.5,16.1-19.5,16.1s-19.5-10.6-19.5-16.1c0-5.5,8.7-6.9,19.5-6.9
					C326.8,183.5,335.6,184.9,335.6,190.4z"/>
				<path class="st32" d="M319,222.5c0,1.9-1.6,3.5-3.5,3.5l0,0c-1.9,0-3.5-1.6-3.5-3.5v-20c0-1.9,1.6-3.5,3.5-3.5l0,0
					c1.9,0,3.5,1.6,3.5,3.5V222.5z"/>
			</g>
			<g>
				<path class="st32" d="M328.5,219.9c-0.2,6.5-5.5,11.6-12.4,11.7c-6.9,0.2-12.3-5.4-12.4-11.7c-0.1-4-6.8-4.1-6.7,0
					c0.3,10,8.5,17.8,19.1,18c10.6,0.2,18.8-8.4,19.1-18C335.2,215.8,328.6,215.8,328.5,219.9L328.5,219.9z"/>
			</g>
		</g>
	</g>
</g>
</svg>
