<?xml version="1.0" encoding="utf-8"?>
<!-- Generator: Adobe Illustrator 24.0.0, SVG Export Plug-In . SVG Version: 6.00 Build 0)  -->
<svg version="1.1" xmlns="http://www.w3.org/2000/svg" xmlns:xlink="http://www.w3.org/1999/xlink" x="0px" y="0px"
	 viewBox="0 0 256 256" style="enable-background:new 0 0 256 256;" xml:space="preserve">
<style type="text/css">
	.st0{fill:#F98FA6;}
	.st1{fill:#FC657E;}
	.st2{fill:#DAE6F1;}
	.st3{fill:#5290DB;}
	.st4{fill:#FCDD86;}
	.st5{fill:#F5C84C;}
	.st6{fill:#87D147;}
	.st7{fill:#70D6F9;}
	.st8{fill:#EDF4FC;}
	.st9{fill:#9BE5F9;}
	.st10{fill:#B2E26D;}
	.st11{fill:#F9C1A8;}
	.st12{fill:#414344;}
	.st13{fill:#E1FBFF;}
	.st14{fill:#FFE3EC;}
	.st15{fill:#FCBECF;}
	.st16{fill:#EF4460;}
	.st17{fill:#80C2F9;}
	.st18{fill:#3A70BF;}
	.st19{fill:#FCA265;}
	.st20{fill:#5B5D60;}
	.st21{fill:#818182;}
	.st22{fill:#C7D7E5;}
	.st23{fill:#F9D0B4;}
	.st24{fill:#AA6F59;}
	.st25{fill:#D1856D;}
	.st26{fill:#FCC29A;}
	.st27{fill:#29589F;}
	.st28{fill:#F7B386;}
	.st29{fill:#FC8C48;}
	.st30{fill:#FFF0CC;}
	.st31{fill:#57AF12;}
	.st32{fill:#3CAADC;}
	.st33{fill:#EDB311;}
	.st34{fill:#231F20;}
</style>
<g id="Layer_1">
</g>
<g id="Layer_2">
</g>
<g id="Layer_3">
</g>
<g id="Layer_4">
</g>
<g id="Layer_5">
</g>
<g id="Layer_6">
</g>
<g id="Layer_7">
</g>
<g id="Layer_8">
</g>
<g id="Layer_9">
</g>
<g id="Layer_10">
</g>
<g id="Layer_11">
</g>
<g id="Layer_12">
</g>
<g id="Layer_13">
</g>
<g id="Layer_14">
</g>
<g id="Layer_15">
</g>
<g id="Layer_16">
</g>
<g id="Layer_17">
</g>
<g id="Layer_18">
</g>
<g id="Layer_19">
</g>
<g id="Layer_20">
</g>
<g id="Layer_21">
</g>
<g id="Layer_22">
</g>
<g id="Layer_23">
</g>
<g id="Layer_24">
</g>
<g id="Layer_25">
</g>
<g id="Layer_26">
</g>
<g id="Layer_27">
</g>
<g id="Layer_28">
</g>
<g id="Layer_29">
</g>
<g id="Layer_30">
</g>
<g id="Layer_31">
</g>
<g id="Layer_32">
</g>
<g id="Layer_33">
</g>
<g id="Layer_34">
</g>
<g id="Layer_35">
</g>
<g id="Layer_36">
</g>
<g id="Layer_37">
</g>
<g id="Layer_38">
</g>
<g id="Layer_39">
</g>
<g id="Layer_40">
</g>
<g id="Layer_41">
</g>
<g id="Layer_42">
</g>
<g id="Layer_43">
</g>
<g id="Layer_44">
</g>
<g id="Layer_45">
</g>
<g id="Layer_46">
</g>
<g id="Layer_47">
</g>
<g id="Layer_48">
</g>
<g id="Layer_49">
</g>
<g id="Layer_50">
</g>
<g id="Layer_51">
</g>
<g id="Layer_52">
</g>
<g id="Layer_53">
</g>
<g id="Layer_54">
</g>
<g id="Layer_55">
</g>
<g id="Layer_56">
</g>
<g id="Layer_57">
</g>
<g id="Layer_58">
</g>
<g id="Layer_59">
</g>
<g id="Layer_60">
</g>
<g id="Layer_61">
</g>
<g id="Layer_62">
	<g>
		<g>
			<g>
				<path class="st8" d="M223.243,228.686H108.658c-3.105,0-5.622,2.517-5.622,5.622s2.517,5.622,5.622,5.622h114.585
					c3.105,0,5.622-2.517,5.622-5.622S226.348,228.686,223.243,228.686z"/>
			</g>
		</g>
		<g>
			<g>
				<path class="st2" d="M223.243,239.93H108.658c-0.273,0-0.54-0.026-0.803-0.064v2.272c0,0.086,0,0.171,0.001,0.257
					c0,0.041,0.001,0.081,0.001,0.121c0.074,6.129,5.234,10.984,11.363,10.984h93.462c6.129,0,11.288-4.855,11.363-10.984
					c0-0.04,0.001-0.081,0.001-0.121c0.001-0.086,0.001-0.171,0.001-0.257v-2.272C223.783,239.904,223.516,239.93,223.243,239.93z"
					/>
			</g>
		</g>
		<g>
			<g>
				<path class="st8" d="M103.035,234.308c0-3.105,2.517-5.622,5.622-5.622H79.753l-0.687,11.245h29.591
					C105.553,239.93,103.035,237.413,103.035,234.308z"/>
			</g>
		</g>
		<g>
			<g>
				<path class="st2" d="M107.856,242.516c-0.001-0.04-0.001-0.081-0.001-0.121c-0.001-0.086-0.001-0.171-0.001-0.257v-2.208H79.066
					l-0.541,8.849c-0.117,2.372-1.888,4.274-4.162,4.644c0.423,0.047,0.85,0.078,1.283,0.078h43.572
					C113.09,253.5,107.931,248.645,107.856,242.516z"/>
			</g>
		</g>
		<g>
			<g>
				<path class="st24" d="M126.791,184.975c-6.232-5.181-14.33-8.191-23.142-7.86c-14.726,0.554-27.273,10.672-31.414,24.312
					c0.622,1.053,1.003,2.281,1.03,3.628c0.027,1.325,0.924,2.514,2.235,2.708c3.515,0.52,6.546,3.655,6.463,7.545
					c-0.048,2.258-1.101,4.267-2.728,5.603c0.558,0.886,0.86,1.947,0.804,3.076l-0.287,4.699h39.369
					c-3.376-5.693-5.156-12.444-4.699-19.641C115.036,199.402,119.747,190.814,126.791,184.975z"/>
			</g>
		</g>
		<g>
			<g>
				<path class="st25" d="M207.445,187.608c-3.073-6.256-10.836-7.905-16.12-3.933c-0.242,0.182-0.475,0.373-0.697,0.571
					c-2.334,2.083-5.299,3.231-8.425,3.119c-4.44-0.159-8.973,1.409-12.522,4.871c-5.527,5.391-6.679,14.074-2.758,20.726
					c5.258,8.92,16.906,11.068,24.944,5.026c3.214-2.416,5.323-5.75,6.246-9.362c0.755-2.952,2.535-5.611,5.151-7.172
					c0.973-0.581,1.883-1.335,2.69-2.27C208.695,196.01,209.294,191.372,207.445,187.608z"/>
			</g>
		</g>
		<g>
			<g>
				<path class="st24" d="M215.601,217.247c-0.421-7.408-3.834-14.106-9.039-18.884c-0.196,0.278-0.383,0.562-0.607,0.822
					c-0.807,0.935-1.717,1.689-2.69,2.27c-2.616,1.562-4.397,4.22-5.151,7.172c-0.923,3.612-3.032,6.946-6.246,9.362
					c-8.038,6.042-19.687,3.895-24.944-5.026c-3.921-6.652-2.769-15.335,2.758-20.726c1.515-1.477,3.214-2.589,5.003-3.389
					c-0.576-0.421-1.131-0.874-1.638-1.395c-6.492-6.681-15.687-10.718-25.824-10.337c-17.359,0.653-31.696,14.592-32.798,31.929
					c-0.457,7.197,1.323,13.948,4.699,19.641h94.748C215.197,225.157,215.831,221.289,215.601,217.247z"/>
			</g>
		</g>
		<g>
			<g>
				<path class="st25" d="M155.284,192.06l-6.301-3.009c-5.541-2.508-12.082-0.795-15.683,4.106l-8.283,11.563
					c-3.17,4.425-1.578,10.638,3.328,12.995h0c4.537,2.179,9.973,0.095,11.89-4.56l4.431-10.757
					c0.479-1.498,1.973-2.428,3.529-2.195l3.762,0.978c2.547,0.662,5.159-0.817,5.904-3.341
					C158.537,195.542,157.445,193.092,155.284,192.06z"/>
			</g>
		</g>
		<g>
			<g>
				<path class="st25" d="M111.712,192.06l-6.301-3.009c-5.541-2.508-12.082-0.795-15.683,4.106l-8.283,11.563
					c-1.155,1.612-1.671,3.462-1.631,5.276c1.34,1.365,2.195,3.228,2.15,5.312c-0.002,0.08-0.014,0.157-0.018,0.237
					c0.759,0.879,1.701,1.629,2.827,2.17c4.537,2.179,9.973,0.095,11.89-4.56l4.431-10.757c0.479-1.498,1.973-2.428,3.529-2.195
					l3.762,0.978c2.547,0.662,5.159-0.817,5.904-3.341C114.965,195.542,113.873,193.092,111.712,192.06z"/>
			</g>
		</g>
		<g>
			<g>
				<path class="st5" d="M37.309,223.639c-0.047-2.89-2.404-5.209-5.295-5.209h0c-3.027,0-5.438,2.533-5.289,5.556l1.514,24.792
					c0.13,2.644,2.312,4.721,4.959,4.721h4.699L37.309,223.639z"/>
			</g>
		</g>
		<g>
			<g>
				<path class="st4" d="M42.701,218.43h-0.093c-2.959,0-5.344,2.424-5.295,5.383l0.585,29.687h10.099v-29.774
					C47.996,220.801,45.625,218.43,42.701,218.43z"/>
			</g>
		</g>
		<g>
			<g>
				<path class="st5" d="M53.473,218.43h-0.181c-2.925,0-5.296,2.371-5.296,5.296V253.5h10.772v-29.774
					C58.769,220.801,56.398,218.43,53.473,218.43z"/>
			</g>
		</g>
		<g>
			<g>
				<path class="st4" d="M64.158,218.43h-0.093c-2.925,0-5.296,2.371-5.296,5.296V253.5h10.099l0.585-29.687
					C69.501,220.854,67.116,218.43,64.158,218.43z"/>
			</g>
		</g>
		<g>
			<g>
				<path class="st5" d="M74.751,218.43L74.751,218.43c-2.891,0-5.248,2.319-5.295,5.209L68.868,253.5h4.699
					c2.647,0,4.829-2.077,4.959-4.721l1.514-24.792C80.189,220.963,77.778,218.43,74.751,218.43z"/>
			</g>
		</g>
		<g>
			<g>
				<path class="st1" d="M53.383,186.113c-3.532,0-6.396,2.864-6.396,6.396s2.864,6.396,6.396,6.396
					c3.532,0,6.396-2.864,6.396-6.396S56.915,186.113,53.383,186.113z"/>
			</g>
		</g>
		<g>
			<g>
				<path class="st30" d="M75.5,207.762c-1.311-0.194-2.208-1.382-2.235-2.708c-0.104-5.089-5.14-8.537-9.872-6.903
					c-1.287,0.444-2.736-0.032-3.345-1.251c-0.266-0.532-0.597-1.025-0.977-1.476c-1.061,2.064-3.207,3.48-5.688,3.48
					c-2.481,0-4.627-1.415-5.688-3.48c-0.38,0.45-0.711,0.943-0.977,1.476c-0.609,1.218-2.058,1.695-3.345,1.251
					c-4.761-1.644-9.769,1.846-9.872,6.903c-0.027,1.325-0.924,2.514-2.235,2.708c-3.499,0.517-6.546,3.634-6.463,7.545
					c0.048,2.258,1.101,4.267,2.728,5.603c0.935-1.486,2.589-2.48,4.485-2.48h0c2.891,0,5.248,2.319,5.295,5.209l0.003,0.173
					c-0.048-2.958,2.336-5.382,5.295-5.382h0.093c2.925,0,5.296,2.371,5.296,5.296c0-2.925,2.371-5.296,5.296-5.296h0.181
					c2.925,0,5.296,2.371,5.296,5.296c0-2.925,2.371-5.296,5.296-5.296h0.093c2.959,0,5.344,2.424,5.295,5.382l0.003-0.173
					c0.047-2.89,2.404-5.209,5.295-5.209h0c1.896,0,3.55,0.994,4.485,2.48c1.627-1.336,2.68-3.345,2.728-5.603
					C82.046,211.417,79.015,208.282,75.5,207.762z"/>
			</g>
		</g>
		<g>
			<g>
				<path class="st30" d="M230.66,176.437c-0.866-1.915-2.454-3.122-4.221-3.564c-1.275-0.319-2.14-1.469-2.091-2.782
					c0.066-1.82-0.652-3.681-2.25-5.046c-1.822-1.555-4.47-1.915-6.642-0.903c-3.786,1.763-4.806,6.4-2.442,9.544
					c0.261,0.347,0.56,0.646,0.872,0.922l-10.971,8.246c1.866,1.021,3.477,2.61,4.53,4.754c0.363,0.738,0.603,1.515,0.78,2.302
					l10.966-8.243c0.178,0.377,0.383,0.747,0.644,1.094c2.364,3.145,7.101,3.453,9.847,0.307
					C231.257,181.262,231.647,178.619,230.66,176.437z"/>
			</g>
		</g>
		<g>
			<g>
				<path class="st7" d="M65.694,138.302h-2.329v-2.33c0-1.744-1.413-3.157-3.157-3.157c-1.744,0-3.157,1.413-3.157,3.157v2.33
					h-2.33c-1.744,0-3.157,1.413-3.157,3.157c0,1.744,1.413,3.157,3.157,3.157h2.33v2.33c0,1.744,1.413,3.157,3.157,3.157
					c1.744,0,3.157-1.414,3.157-3.157v-2.33h2.329c1.744,0,3.157-1.413,3.157-3.157C68.851,139.715,67.438,138.302,65.694,138.302z"
					/>
			</g>
		</g>
		<g>
			<g>
				<path class="st5" d="M203.983,21.697c-4.498-0.838-8.043-4.31-8.898-8.717c-0.043-0.221-0.352-0.221-0.395,0
					c-0.855,4.406-4.4,7.879-8.898,8.717c-0.226,0.042-0.226,0.345,0,0.387c4.498,0.838,8.043,4.31,8.898,8.717
					c0.043,0.221,0.352,0.221,0.395,0c0.855-4.406,4.4-7.879,8.898-8.717C204.209,22.042,204.209,21.739,203.983,21.697z"/>
			</g>
		</g>
		<g>
			<g>
				<path class="st1" d="M201.385,150.345c-3.213-0.598-5.745-3.079-6.356-6.227c-0.031-0.158-0.251-0.158-0.282,0
					c-0.611,3.147-3.143,5.628-6.356,6.227c-0.161,0.03-0.161,0.246,0,0.276c3.213,0.598,5.745,3.079,6.356,6.227
					c0.031,0.158,0.251,0.158,0.282,0c0.611-3.147,3.143-5.628,6.356-6.227C201.546,150.591,201.546,150.375,201.385,150.345z"/>
			</g>
		</g>
		<g>
			<g>
				<circle class="st6" cx="171.999" cy="3.377" r="3.377"/>
			</g>
		</g>
		<g>
			<g>
				<circle class="st5" cx="37.999" cy="160.377" r="3.377"/>
			</g>
		</g>
		<g>
			<g>
				<path class="st11" d="M165.76,63.406c-0.023-1.145-0.939-2.088-2.083-2.121c-16.764-0.491-25.597-7.135-28.991-10.463
					c-0.927-0.908-2.422-0.813-3.23,0.203c-14.739,18.535-36.482,15.919-43.792,14.39c-1.329-0.278-2.603,0.723-2.604,2.081v32.489
					c0,22.194,18.159,40.353,40.353,40.353h0c22.194,0,40.353-18.159,40.353-40.353V64.037
					C165.767,63.826,165.764,63.616,165.76,63.406z"/>
			</g>
		</g>
		<g>
			<g>
				<path class="st1" d="M133.623,105.41h-16.267c-2.829,0-5.144,2.315-5.144,5.144v3.027c0,7.302,5.975,13.277,13.277,13.277
					c7.302,0,13.277-5.975,13.277-13.277v-3.027C138.766,107.725,136.452,105.41,133.623,105.41z"/>
			</g>
		</g>
		<g>
			<g>
				<path class="st8" d="M133.623,105.41h-16.267c-2.829,0-5.144,2.315-5.144,5.144v3.027h26.554v-3.027
					C138.766,107.725,136.452,105.41,133.623,105.41z"/>
			</g>
		</g>
		<g>
			<g>
				<path class="st12" d="M156.991,20.602c-4.3,0-8.32,1.215-11.775,3.287c-4.036-6.735-11.387-11.282-19.768-11.282h-11.837
					c-22.909,0-41.653,18.744-41.653,41.653v18.664c2.883-2.307,6.533-3.694,10.512-3.694c0.882,0,1.745,0.074,2.589,0.205v-1.939
					c0.001-1.357,1.276-2.359,2.604-2.081c7.31,1.53,29.053,4.146,43.792-14.39c0.808-1.016,2.303-1.111,3.23-0.203
					c3.394,3.327,12.227,9.971,28.991,10.463c1.144,0.033,2.061,0.977,2.083,2.121c0.004,0.21,0.006,0.42,0.006,0.631v5.397
					c0.845-0.131,1.708-0.205,2.59-0.205c4.542,0,8.655,1.806,11.685,4.728V43.652C180.042,30.975,169.669,20.602,156.991,20.602z"
					/>
			</g>
		</g>
		<g>
			<g>
				<path class="st11" d="M168.356,69.229c-0.882,0-1.745,0.074-2.589,0.205v30.549c0,0.91-0.042,1.811-0.102,2.706
					c0.878,0.141,1.773,0.235,2.691,0.235c9.305,0,16.848-7.543,16.848-16.848C185.204,76.772,177.661,69.229,168.356,69.229z"/>
			</g>
		</g>
		<g>
			<g>
				<path class="st11" d="M85.06,99.984V69.434c-0.845-0.131-1.708-0.205-2.59-0.205c-9.305,0-16.848,7.543-16.848,16.848
					c0,9.305,7.543,16.848,16.848,16.848c0.918,0,1.813-0.094,2.691-0.235v-0.001C85.101,101.794,85.06,100.893,85.06,99.984z"/>
			</g>
		</g>
		<g>
			<g>
				<path class="st7" d="M206.447,180.199c-1.279-5.821-5.746-10.531-11.665-12.021l-31.339-7.888l-11.076-5.461
					c-4.761-2.347-7.776-7.195-7.776-12.503v-6.869c-5.713,3.11-12.248,4.88-19.177,4.88h0c-6.461,0-12.575-1.548-18.004-4.277
					v6.266c0,5.308-3.015,10.156-7.776,12.503l-11.076,5.461l-31.339,7.888c-6.758,1.701-11.625,7.599-12.013,14.557L44.155,198.3
					c1.05,0.067,2.076-0.423,2.563-1.398c0.266-0.532,0.597-1.025,0.977-1.476c-0.45-0.875-0.708-1.865-0.708-2.916
					c0-3.532,2.864-6.396,6.396-6.396c3.532,0,6.396,2.864,6.396,6.396c0,1.052-0.258,2.041-0.708,2.916
					c0.38,0.45,0.711,0.943,0.977,1.476c0.609,1.218,2.057,1.695,3.345,1.251c3.48-1.201,7.116,0.35,8.842,3.275
					c4.141-13.64,16.688-23.757,31.414-24.312c8.812-0.331,16.91,2.679,23.142,7.86c5.621-4.659,12.726-7.57,20.43-7.86
					c10.137-0.381,19.332,3.656,25.824,10.337c0.507,0.521,1.063,0.975,1.638,1.395c-0.001,0-0.002,0.001-0.003,0.001
					c2.405-1.076,4.976-1.574,7.522-1.483c3.126,0.112,6.091-1.037,8.425-3.119c0.222-0.198,0.455-0.389,0.697-0.571
					c3.474-2.611,8.011-2.779,11.591-0.82c0,0-0.001,0-0.001-0.001L206.447,180.199z"/>
			</g>
		</g>
		<g>
			<g>
				<path class="st11" d="M152.366,154.829c-4.761-2.347-7.776-7.195-7.776-12.503v-6.869c-5.713,3.11-12.248,4.88-19.177,4.88h0
					c-6.461,0-12.575-1.548-18.004-4.277v6.266c0,5.308-3.015,10.156-7.776,12.503l-1.74,0.858
					c5.257,10.199,15.898,17.22,28.106,17.22s22.849-7.021,28.106-17.22L152.366,154.829z"/>
			</g>
		</g>
		<g>
			<g>
				<g>
					<path d="M168.26,63.356c-0.05-2.489-2.03-4.497-4.51-4.571c-16.16-0.474-24.485-6.975-27.314-9.748
						c-0.945-0.926-2.238-1.402-3.562-1.33c-1.319,0.082-2.549,0.724-3.375,1.763c-13.626,17.136-33.439,15.148-41.323,13.498
						c-1.385-0.285-2.808,0.057-3.905,0.946c-1.086,0.882-1.71,2.186-1.712,3.608v32.461c0,23.63,19.224,42.854,42.854,42.854
						s42.854-19.224,42.854-42.854V64.037C168.267,63.809,168.265,63.58,168.26,63.356z M163.267,99.983
						c0,20.872-16.981,37.854-37.854,37.854S87.56,120.855,87.56,99.983V67.945c7.309,1.455,30.146,4.091,45.633-15.089
						c4.141,3.955,13.363,10.345,30.073,10.916c0,0.088,0.001,0.177,0.001,0.265V99.983z"/>
				</g>
			</g>
		</g>
		<g>
			<g>
				<path d="M156.991,18.102c-3.781,0-7.525,0.862-10.955,2.509c-4.797-6.532-12.484-10.504-20.587-10.504h-11.837
					c-24.346,0-44.153,19.807-44.153,44.153v17.928c0,1.381,1.119,2.5,2.5,2.5s2.5-1.119,2.5-2.5V54.26
					c0-21.589,17.564-39.153,39.153-39.153h11.837c7.149,0,13.902,3.857,17.623,10.067c0.341,0.568,0.894,0.979,1.537,1.14
					c0.642,0.162,1.324,0.06,1.893-0.281c3.197-1.917,6.824-2.931,10.489-2.931c11.332,0,20.551,9.219,20.551,20.551v29.692
					c0,1.381,1.119,2.5,2.5,2.5s2.5-1.119,2.5-2.5V43.652C182.542,29.563,171.08,18.102,156.991,18.102z"/>
			</g>
		</g>
		<g>
			<g>
				<path d="M168.356,66.729c-0.678,0-1.376,0.039-2.077,0.116c-1.373,0.152-2.362,1.388-2.21,2.76
					c0.151,1.372,1.383,2.354,2.759,2.211c0.52-0.058,1.034-0.087,1.528-0.087c7.911,0,14.348,6.437,14.348,14.349
					c0,7.911-6.437,14.348-14.348,14.348c-0.437,0-0.88-0.025-1.357-0.076c-1.379-0.155-2.606,0.845-2.753,2.217
					c-0.148,1.373,0.845,2.606,2.217,2.754c0.656,0.071,1.276,0.105,1.893,0.105c10.668,0,19.348-8.68,19.348-19.348
					C187.704,75.408,179.025,66.729,168.356,66.729z"/>
			</g>
		</g>
		<g>
			<g>
				<path d="M82.47,71.729c0.521,0,1.06,0.031,1.602,0.094c1.371,0.157,2.611-0.826,2.769-2.197c0.158-1.372-0.826-2.612-2.198-2.77
					c-0.731-0.084-1.462-0.127-2.173-0.127c-10.668,0-19.348,8.68-19.348,19.349c0,10.668,8.679,19.348,19.348,19.348
					c0.672,0,1.35-0.041,2.071-0.125c1.372-0.16,2.354-1.402,2.193-2.773c-0.16-1.372-1.405-2.339-2.773-2.193
					c-0.527,0.062-1.015,0.092-1.491,0.092c-7.911,0-14.348-6.437-14.348-14.348C68.123,78.165,74.559,71.729,82.47,71.729z"/>
			</g>
		</g>
		<g>
			<g>
				<g>
					<path d="M208.684,178.821c-1.734-6.434-6.827-11.44-13.292-13.068l-31.082-7.822l-10.839-5.345
						c-3.936-1.94-6.381-5.872-6.381-10.261V136.5c0-1.381-1.119-2.5-2.5-2.5s-2.5,1.119-2.5,2.5v5.825
						c0,6.307,3.514,11.957,9.17,14.745l11.077,5.462c0.158,0.078,0.324,0.139,0.495,0.183l31.339,7.888
						c4.71,1.186,8.421,4.833,9.684,9.52c0.301,1.115,1.31,1.851,2.413,1.851c0.215,0,0.434-0.028,0.652-0.087
						C208.253,181.526,209.043,180.154,208.684,178.821z"/>
				</g>
			</g>
			<g>
				<g>
					<path d="M107.409,134.563c-1.381,0-2.5,1.119-2.5,2.5v5.262c0,4.389-2.445,8.32-6.381,10.261l-10.839,5.345l-31.082,7.822
						c-7.863,1.979-13.448,8.748-13.896,16.814l-0.988,14.638c-0.093,1.377,0.948,2.569,2.326,2.662
						c0.058,0.004,0.114,0.006,0.171,0.006c1.304,0,2.403-1.012,2.492-2.332l0.99-14.667c0.328-5.898,4.398-10.83,10.127-12.271
						l31.339-7.888c0.171-0.044,0.337-0.104,0.495-0.183l11.077-5.462c5.656-2.788,9.17-8.438,9.17-14.745v-5.262
						C109.909,135.683,108.79,134.563,107.409,134.563z"/>
				</g>
			</g>
		</g>
		<g>
			<g>
				<path d="M154.884,154.306c-1.209-0.669-2.73-0.229-3.397,0.979c-5.154,9.327-14.919,15.121-25.487,15.121
					c-10.622,0-20.412-5.838-25.55-15.236c-0.662-1.212-2.18-1.655-3.393-0.994c-1.211,0.662-1.657,2.181-0.994,3.393
					c6.015,11.003,17.486,17.838,29.937,17.838c12.387,0,23.83-6.783,29.863-17.703
					C156.531,156.495,156.092,154.974,154.884,154.306z"/>
			</g>
		</g>
		<g>
			<g>
				<g>
					<path d="M133.623,102.91h-16.267c-4.215,0-7.644,3.429-7.644,7.644v3.027c0,8.699,7.078,15.776,15.777,15.776
						s15.777-7.077,15.777-15.776v-3.027C141.266,106.339,137.837,102.91,133.623,102.91z M136.266,113.581
						c0,5.942-4.834,10.776-10.777,10.776s-10.777-4.834-10.777-10.776v-3.027c0-1.458,1.186-2.644,2.644-2.644h16.267
						c1.458,0,2.644,1.186,2.644,2.644V113.581z"/>
				</g>
			</g>
		</g>
		<g>
			<g>
				<path d="M138.125,111.081h-25.22c-1.381,0-2.5,1.119-2.5,2.5s1.119,2.5,2.5,2.5h25.22c1.381,0,2.5-1.119,2.5-2.5
					S139.506,111.081,138.125,111.081z"/>
			</g>
		</g>
		<g>
			<g>
				<path d="M107.616,79.931c-5.039,0-9.138,4.1-9.138,9.139c0,1.381,1.119,2.5,2.5,2.5s2.5-1.119,2.5-2.5
					c0-2.282,1.856-4.139,4.138-4.139c2.282,0,4.139,1.856,4.139,4.139c0,1.381,1.119,2.5,2.5,2.5s2.5-1.119,2.5-2.5
					C116.755,84.03,112.655,79.931,107.616,79.931z"/>
			</g>
		</g>
		<g>
			<g>
				<path d="M144.384,79.931c-5.039,0-9.139,4.1-9.139,9.139c0,1.381,1.119,2.5,2.5,2.5s2.5-1.119,2.5-2.5
					c0-2.282,1.856-4.139,4.139-4.139c2.282,0,4.138,1.856,4.138,4.139c0,1.381,1.119,2.5,2.5,2.5s2.5-1.119,2.5-2.5
					C153.522,84.03,149.422,79.931,144.384,79.931z"/>
			</g>
		</g>
		<g>
			<g>
				<g>
					<path d="M223.243,226.186H108.658c-4.479,0-8.123,3.644-8.123,8.122s3.644,8.122,8.123,8.122h114.585
						c4.479,0,8.122-3.644,8.122-8.122S227.721,226.186,223.243,226.186z M223.243,237.43H108.658c-1.722,0-3.123-1.4-3.123-3.122
						s1.401-3.122,3.123-3.122h114.585c1.722,0,3.122,1.4,3.122,3.122S224.964,237.43,223.243,237.43z"/>
				</g>
			</g>
		</g>
		<g>
			<g>
				<g>
					<path d="M209.688,186.505c-1.77-3.603-4.991-6.197-8.838-7.117c-3.847-0.919-7.867-0.087-11.029,2.289
						c-0.299,0.226-0.585,0.46-0.858,0.704c-1.894,1.69-4.263,2.574-6.671,2.486c-5.376-0.208-10.471,1.789-14.357,5.58
						c-6.323,6.167-7.655,16.17-3.167,23.785c2.842,4.821,7.594,8.21,13.04,9.296c1.266,0.252,2.543,0.376,3.815,0.376
						c4.203,0,8.337-1.355,11.745-3.917c3.528-2.652,6.074-6.467,7.167-10.741c0.623-2.438,2.084-4.495,4.009-5.645
						c1.23-0.733,2.341-1.67,3.302-2.783C211.229,196.9,211.969,191.148,209.688,186.505z M204.062,197.551
						c-0.61,0.707-1.309,1.298-2.08,1.757c-3.051,1.822-5.344,4.993-6.292,8.7c-0.823,3.223-2.665,5.982-5.326,7.982
						c-3.303,2.483-7.52,3.446-11.579,2.634c-4.11-0.819-7.559-3.28-9.709-6.931c-3.334-5.656-2.346-13.087,2.35-17.667
						c2.771-2.702,6.361-4.172,10.161-4.172c0.175,0,0.351,0.003,0.526,0.009c3.703,0.147,7.319-1.199,10.179-3.752
						c0.171-0.152,0.35-0.299,0.535-0.438c1.965-1.478,4.465-1.996,6.86-1.423c2.428,0.581,4.386,2.165,5.514,4.46
						C206.609,191.577,206.152,195.13,204.062,197.551z"/>
				</g>
			</g>
		</g>
		<g>
			<g>
				<path d="M232.937,175.406c-1.13-2.498-3.278-4.306-5.892-4.958c-0.128-0.032-0.205-0.135-0.2-0.268
					c0.098-2.693-1.042-5.258-3.126-7.037c-2.582-2.205-6.241-2.7-9.32-1.269c-2.458,1.145-4.24,3.287-4.889,5.878
					c-0.547,2.186-0.243,4.456,0.828,6.393l-8.362,6.286c-1.104,0.829-1.326,2.396-0.497,3.5c0.83,1.103,2.397,1.326,3.5,0.496
					l10.406-7.822c0.602-0.451,0.967-1.15,0.996-1.901c0.029-0.752-0.282-1.477-0.847-1.974c-0.231-0.203-0.397-0.377-0.525-0.547
					c-0.694-0.923-0.93-2.095-0.649-3.217c0.285-1.138,1.047-2.046,2.149-2.559c1.29-0.601,2.882-0.384,3.963,0.538
					c0.93,0.794,1.418,1.878,1.375,3.052c-0.092,2.51,1.545,4.689,3.984,5.301c1.14,0.284,2.046,1.055,2.549,2.169
					c0.586,1.295,0.352,2.884-0.583,3.956c-0.8,0.915-1.897,1.406-3.057,1.353c-1.155-0.042-2.215-0.595-2.907-1.515
					c-0.128-0.171-0.25-0.382-0.385-0.666c-0.321-0.679-0.931-1.176-1.66-1.356c-0.729-0.177-1.501-0.021-2.101,0.43l-10.293,7.737
					c-1.104,0.829-1.326,2.396-0.497,3.5c0.491,0.653,1.241,0.998,2,0.998c0.523,0,1.05-0.163,1.5-0.502l8.25-6.2
					c1.563,1.566,3.659,2.489,5.91,2.571c2.688,0.106,5.223-1.02,7.006-3.062C233.799,182.152,234.338,178.5,232.937,175.406z"/>
			</g>
		</g>
		<g>
			<g>
				<g>
					<path d="M218.097,217.105c-0.433-7.605-3.752-14.75-9.348-20.118c-0.996-0.956-2.578-0.923-3.535,0.073
						c-0.956,0.996-0.923,2.579,0.074,3.534c4.681,4.49,7.457,10.455,7.817,16.794c0.191,3.351-0.259,6.633-1.337,9.757
						c-0.45,1.306,0.243,2.729,1.548,3.179c0.27,0.093,0.545,0.138,0.815,0.138c1.037,0,2.006-0.65,2.363-1.686
						C217.785,225.034,218.324,221.107,218.097,217.105z"/>
				</g>
			</g>
			<g>
				<g>
					<path d="M175.803,186.562c-0.38-0.296-0.695-0.573-0.965-0.852c-7.23-7.44-17.335-11.491-27.711-11.093
						c-18.56,0.698-34.021,15.751-35.199,34.269c-0.454,7.142,1.151,14.188,4.64,20.376c0.459,0.815,1.307,1.273,2.18,1.272
						c0.416,0,0.837-0.104,1.226-0.322c1.203-0.678,1.628-2.203,0.95-3.405c-3.013-5.344-4.398-11.431-4.005-17.604
						c1.016-15.988,14.368-28.985,30.396-29.589c8.964-0.328,17.692,3.155,23.937,9.58c0.433,0.445,0.918,0.876,1.483,1.315
						c1.091,0.849,2.662,0.65,3.508-0.439C177.09,188.979,176.893,187.408,175.803,186.562z"/>
				</g>
			</g>
		</g>
		<g>
			<g>
				<g>
					<path d="M156.361,189.804l-6.348-3.03c-6.578-2.979-14.454-0.914-18.746,4.927l-8.283,11.563
						c-1.942,2.711-2.582,6.119-1.754,9.35s3.026,5.911,6.032,7.355c1.551,0.745,3.206,1.119,4.866,1.119
						c1.36,0,2.724-0.251,4.04-0.756c2.922-1.12,5.188-3.33,6.379-6.224l4.43-10.758c0.026-0.063,0.049-0.126,0.07-0.19
						c0.098-0.305,0.41-0.501,0.693-0.492l3.589,0.933c3.875,1.005,7.798-1.214,8.929-5.054
						C161.288,195.051,159.649,191.374,156.361,189.804z M155.461,197.132c-0.365,1.237-1.631,1.952-2.876,1.628l-3.762-0.978
						c-0.085-0.021-0.172-0.04-0.259-0.053c-2.743-0.411-5.351,1.183-6.244,3.797l-4.396,10.677
						c-0.663,1.608-1.922,2.837-3.546,3.46c-1.624,0.622-3.383,0.552-4.951-0.203c-1.671-0.802-2.893-2.292-3.353-4.088
						s-0.104-3.69,0.975-5.197l8.265-11.538c2.002-2.726,5.176-4.229,8.399-4.229c1.419,0,2.849,0.292,4.192,0.899l6.301,3.009
						C155.266,194.821,155.793,196.006,155.461,197.132z"/>
				</g>
			</g>
		</g>
		<g>
			<g>
				<path d="M224.046,238.167c-1.381,0-2.5,1.119-2.5,2.5v1.471c0,5.548-4.507,8.862-8.865,8.862h-93.462
					c-4.357,0-8.865-3.314-8.865-8.862v-1.513c0-1.381-1.119-2.5-2.5-2.5s-2.5,1.119-2.5,2.5v1.513
					c0,7.773,6.09,13.862,13.865,13.862h93.462c7.774,0,13.865-6.089,13.865-13.862v-1.471
					C226.546,239.286,225.427,238.167,224.046,238.167z"/>
			</g>
		</g>
		<g>
			<g>
				<path d="M112.789,189.804l-6.348-3.03c-6.577-2.979-14.454-0.914-18.746,4.927l-8.284,11.563
					c-1.245,1.739-1.965,3.783-2.083,5.912c-0.076,1.378,0.979,2.558,2.358,2.634c1.355,0.077,2.558-0.979,2.634-2.358
					c0.065-1.179,0.465-2.312,1.156-3.276l8.266-11.538c2.885-3.926,8.199-5.317,12.591-3.33l6.301,3.009
					c1.06,0.506,1.587,1.69,1.255,2.816c-0.365,1.237-1.628,1.952-2.877,1.628l-3.762-0.978c-0.085-0.021-0.172-0.04-0.259-0.053
					c-2.745-0.411-5.351,1.182-6.243,3.797l-4.397,10.676c-0.663,1.608-1.922,2.838-3.546,3.461s-3.382,0.551-4.948-0.201
					c-0.682-0.328-1.295-0.776-1.821-1.333c-0.949-1.003-2.531-1.047-3.535-0.097c-1.002,0.949-1.046,2.531-0.097,3.534
					c0.947,1,2.052,1.808,3.287,2.402c1.55,0.744,3.204,1.118,4.864,1.118c1.36,0,2.726-0.251,4.041-0.756
					c2.922-1.12,5.188-3.331,6.379-6.225l4.43-10.757c0.026-0.063,0.049-0.126,0.07-0.19c0.098-0.305,0.396-0.501,0.693-0.492
					l3.587,0.933c3.873,1.007,7.798-1.213,8.931-5.054C117.716,195.051,116.077,191.374,112.789,189.804z"/>
			</g>
		</g>
		<g>
			<g>
				<g>
					<path d="M113.375,226.186H80.542c-1.381,0-2.5,1.119-2.5,2.5s1.119,2.5,2.5,2.5h32.833c1.381,0,2.5-1.119,2.5-2.5
						S114.756,226.186,113.375,226.186z"/>
				</g>
			</g>
			<g>
				<g>
					<path d="M127.456,182.302c-6.788-5.279-15.268-8.016-23.901-7.685c-15.279,0.575-28.74,10.782-33.497,25.398
						c-0.427,1.313,0.291,2.724,1.604,3.15c0.257,0.084,0.518,0.124,0.774,0.124c1.053,0,2.033-0.672,2.377-1.728
						c4.11-12.632,15.737-21.452,28.931-21.949c7.45-0.268,14.782,2.076,20.643,6.636c1.091,0.848,2.662,0.652,3.508-0.438
						C128.742,184.721,128.546,183.149,127.456,182.302z"/>
				</g>
			</g>
		</g>
		<g>
			<g>
				<path d="M108.658,237.43H79.781c-1.381,0-2.5,1.119-2.5,2.5s1.119,2.5,2.5,2.5h28.876c1.381,0,2.5-1.119,2.5-2.5
					S110.039,237.43,108.658,237.43z"/>
			</g>
		</g>
		<g>
			<g>
				<path d="M108.658,226.186H80.542c-1.381,0-2.5,1.119-2.5,2.5s1.119,2.5,2.5,2.5h28.116c1.381,0,2.5-1.119,2.5-2.5
					S110.039,226.186,108.658,226.186z"/>
			</g>
		</g>
		<g>
			<g>
				<path d="M119.219,251H75.647c-0.304,0-0.632-0.021-1.002-0.063c-1.376-0.161-2.61,0.831-2.766,2.203
					c-0.155,1.372,0.832,2.61,2.203,2.766c0.559,0.063,1.071,0.094,1.564,0.094h43.572c1.381,0,2.5-1.119,2.5-2.5
					S120.6,251,119.219,251z"/>
			</g>
		</g>
		<g>
			<g>
				<path d="M107.854,237.43H79.781c-1.381,0-2.5,1.119-2.5,2.5s1.119,2.5,2.5,2.5h28.073c1.381,0,2.5-1.119,2.5-2.5
					S109.235,237.43,107.854,237.43z"/>
			</g>
		</g>
		<g>
			<g>
				<g>
					<path d="M39.809,223.597c-0.07-4.228-3.567-7.666-7.795-7.666c-2.155,0-4.161,0.859-5.646,2.421
						c-1.486,1.561-2.246,3.605-2.138,5.787l1.512,24.763c0.196,3.98,3.471,7.099,7.456,7.099h4.699c0.671,0,1.315-0.271,1.785-0.75
						s0.728-1.128,0.714-1.799L39.809,223.597z M33.198,251c-1.316,0-2.397-1.029-2.464-2.374l-1.512-24.763
						c-0.038-0.771,0.234-1.505,0.767-2.064s1.252-0.868,2.025-0.868c1.517,0,2.771,1.233,2.796,2.75c0,0.003,0,0.006,0,0.008
						L35.348,251H33.198z"/>
				</g>
			</g>
		</g>
		<g>
			<g>
				<path d="M42.607,215.931c-2.107,0-4.081,0.827-5.558,2.329c-1.478,1.501-2.272,3.487-2.237,5.594
					c0.022,1.366,1.137,2.459,2.499,2.459h0.042c1.38-0.022,2.481-1.16,2.458-2.541c-0.012-0.755,0.273-1.467,0.802-2.006
					c0.53-0.538,1.238-0.835,2.087-0.835c1.542,0,2.796,1.254,2.796,2.796c0,1.381,1.119,2.5,2.5,2.5s2.5-1.119,2.5-2.5
					C50.497,219.428,47,215.931,42.607,215.931z"/>
			</g>
		</g>
		<g>
			<g>
				<path d="M47.997,251H37.897c-1.381,0-2.5,1.119-2.5,2.5s1.119,2.5,2.5,2.5h10.099c1.381,0,2.5-1.119,2.5-2.5
					S49.377,251,47.997,251z"/>
			</g>
		</g>
		<g>
			<g>
				<g>
					<path d="M53.473,215.931h-0.181c-4.298,0-7.795,3.497-7.795,7.796V253.5c0,1.381,1.119,2.5,2.5,2.5h10.772
						c1.381,0,2.5-1.119,2.5-2.5v-29.773C61.269,219.428,57.771,215.931,53.473,215.931z M56.269,251h-5.772v-27.273
						c0-1.542,1.254-2.796,2.795-2.796h0.181c1.542,0,2.796,1.254,2.796,2.796V251z"/>
				</g>
			</g>
		</g>
		<g>
			<g>
				<path d="M69.716,218.26c-1.477-1.502-3.451-2.329-5.651-2.329c-4.299,0-7.796,3.497-7.796,7.796c0,1.381,1.119,2.5,2.5,2.5
					s2.5-1.119,2.5-2.5c0-1.542,1.254-2.796,2.889-2.796c0.756,0,1.464,0.297,1.994,0.835c0.529,0.538,0.814,1.251,0.802,2.006
					c-0.023,1.38,1.078,2.518,2.458,2.541h0.042c1.361,0,2.476-1.093,2.499-2.459C71.987,221.748,71.193,219.761,69.716,218.26z"/>
			</g>
		</g>
		<g>
			<g>
				<path d="M68.868,251H58.769c-1.381,0-2.5,1.119-2.5,2.5s1.119,2.5,2.5,2.5h10.099c1.381,0,2.5-1.119,2.5-2.5
					S70.249,251,68.868,251z"/>
			</g>
		</g>
		<g>
			<g>
				<g>
					<path d="M80.397,218.352c-1.486-1.562-3.491-2.421-5.646-2.421h0c-4.229,0-7.725,3.439-7.794,7.66l-0.588,29.86
						c-0.013,0.671,0.244,1.319,0.714,1.799s1.114,0.75,1.785,0.75h4.699c3.985,0,7.26-3.118,7.455-7.069l1.516-24.821
						C82.643,221.957,81.883,219.912,80.397,218.352z M76.029,248.655C75.964,249.97,74.882,251,73.566,251h-2.149l0.538-27.319
						c0.025-1.517,1.279-2.75,2.796-2.75c0.773,0,1.492,0.309,2.025,0.868s0.805,1.293,0.769,2.035L76.029,248.655z"/>
				</g>
			</g>
		</g>
		<g>
			<g>
				<g>
					<path d="M53.382,183.613c-4.905,0-8.896,3.991-8.896,8.896s3.991,8.896,8.896,8.896c4.906,0,8.896-3.99,8.896-8.896
						S58.288,183.613,53.382,183.613z M53.382,196.405c-2.148,0-3.896-1.747-3.896-3.896s1.748-3.896,3.896-3.896
						s3.896,1.748,3.896,3.896S55.531,196.405,53.382,196.405z"/>
				</g>
			</g>
		</g>
		<g>
			<g>
				<path d="M61.037,179.283c-0.581-1.253-2.066-1.798-3.319-1.218c-2.63,1.218-5.963,3.759-6.906,8.947
					c-0.247,1.358,0.654,2.66,2.013,2.907c0.151,0.027,0.301,0.04,0.45,0.04c1.185,0,2.237-0.846,2.457-2.053
					c0.449-2.472,1.825-4.257,4.089-5.305C61.071,182.022,61.617,180.536,61.037,179.283z"/>
			</g>
		</g>
		<g>
			<g>
				<path d="M75.876,205.294c-0.027-0.018-0.108-0.121-0.112-0.29c-0.066-3.22-1.617-6.122-4.256-7.963
					c-2.643-1.844-5.897-2.297-8.932-1.252c-0.154,0.057-0.271,0.013-0.292-0.003c-0.219-0.44-0.479-0.873-0.771-1.286
					c-0.798-1.128-2.357-1.393-3.485-0.596c-1.126,0.798-1.394,2.357-0.596,3.484c0.145,0.205,0.272,0.416,0.379,0.631
					c1.143,2.287,3.894,3.359,6.396,2.496c1.504-0.518,3.124-0.29,4.439,0.627c1.313,0.916,2.085,2.36,2.118,3.963
					c0.053,2.605,1.89,4.763,4.369,5.13c2.174,0.322,4.388,2.287,4.33,5.019c-0.028,1.342-0.585,2.587-1.567,3.506
					c-1.008,0.944-1.06,2.526-0.116,3.534c0.492,0.525,1.158,0.791,1.825,0.791c0.612,0,1.226-0.224,1.708-0.675
					c1.972-1.848,3.09-4.351,3.148-7.05C84.567,210.441,80.791,206.018,75.876,205.294z"/>
			</g>
		</g>
		<g>
			<g>
				<path d="M48.81,193.85c-1.118-0.811-2.682-0.561-3.491,0.558c-0.318,0.439-0.6,0.902-0.835,1.376
					c-0.023,0.019-0.142,0.058-0.294,0.006c-3.035-1.047-6.287-0.592-8.926,1.249c-2.643,1.844-4.197,4.747-4.262,7.966
					c-0.003,0.169-0.084,0.272-0.102,0.286c-4.925,0.729-8.702,5.151-8.597,10.07c0.054,2.55,1.071,4.955,2.864,6.773
					c0.489,0.496,1.135,0.745,1.78,0.745c0.634,0,1.268-0.239,1.755-0.72c0.983-0.97,0.995-2.552,0.025-3.535
					c-0.893-0.905-1.399-2.103-1.426-3.369c-0.058-2.732,2.156-4.697,4.33-5.02c2.479-0.367,4.316-2.524,4.369-5.13
					c0.033-1.603,0.807-3.048,2.124-3.967c1.312-0.916,2.928-1.145,4.434-0.623c2.503,0.862,5.253-0.208,6.396-2.496
					c0.116-0.231,0.255-0.46,0.414-0.679C50.177,196.223,49.928,194.659,48.81,193.85z"/>
			</g>
		</g>
	</g>
</g>
<g id="Layer_63">
</g>
<g id="Layer_64">
</g>
<g id="Layer_65">
</g>
<g id="Layer_66">
</g>
<g id="Layer_67">
</g>
<g id="Layer_68">
</g>
<g id="Layer_69">
</g>
<g id="Layer_70">
</g>
<g id="Layer_71">
</g>
<g id="Layer_72">
</g>
<g id="Layer_73">
</g>
<g id="Layer_74">
</g>
<g id="Layer_75">
</g>
<g id="Layer_76">
</g>
<g id="Layer_77">
</g>
<g id="Layer_78">
</g>
<g id="Layer_79">
</g>
<g id="Layer_80">
</g>
<g id="Layer_81">
</g>
<g id="Layer_82">
</g>
<g id="Layer_83">
</g>
<g id="Layer_84">
</g>
<g id="Layer_85">
</g>
</svg>
